<svg width="200" height="200" viewBox="0 0 200 200" fill="none" xmlns="http://www.w3.org/2000/svg">
<path d="M100 100C104.583 100 108.508 98.3666 111.775 95.1C115.036 91.8389 116.667 87.9166 116.667 83.3333C116.667 78.75 115.036 74.825 111.775 71.5583C108.508 68.2972 104.583 66.6666 100 66.6666C95.4167 66.6666 91.4945 68.2972 88.2334 71.5583C84.9667 74.825 83.3334 78.75 83.3334 83.3333C83.3334 87.9166 84.9667 91.8389 88.2334 95.1C91.4945 98.3666 95.4167 100 100 100ZM100 183.333C77.6389 164.306 60.9389 146.631 49.9 130.308C38.8556 113.992 33.3334 98.8889 33.3334 85C33.3334 64.1666 40.0362 47.5694 53.4417 35.2083C66.8417 22.8472 82.3612 16.6666 100 16.6666C117.639 16.6666 133.158 22.8472 146.558 35.2083C159.964 47.5694 166.667 64.1666 166.667 85C166.667 98.8889 161.147 113.992 150.108 130.308C139.064 146.631 122.361 164.306 100 183.333Z" fill="#C02600"/>
</svg>
