<svg width="250" height="250" viewBox="0 0 250 250" fill="none" xmlns="http://www.w3.org/2000/svg">
<path d="M41.6667 187.5C38.7153 187.5 36.2431 186.5 34.25 184.5C32.25 182.507 31.25 180.035 31.25 177.083C31.25 174.132 32.25 171.66 34.25 169.667C36.2431 167.667 38.7153 166.667 41.6667 166.667H208.333C211.285 166.667 213.757 167.667 215.75 169.667C217.75 171.66 218.75 174.132 218.75 177.083C218.75 180.035 217.75 182.507 215.75 184.5C213.757 186.5 211.285 187.5 208.333 187.5H41.6667ZM41.6667 135.417C38.7153 135.417 36.2431 134.417 34.25 132.417C32.25 130.424 31.25 127.951 31.25 125C31.25 122.049 32.25 119.573 34.25 117.573C36.2431 115.58 38.7153 114.583 41.6667 114.583H208.333C211.285 114.583 213.757 115.58 215.75 117.573C217.75 119.573 218.75 122.049 218.75 125C218.75 127.951 217.75 130.424 215.75 132.417C213.757 134.417 211.285 135.417 208.333 135.417H41.6667ZM41.6667 83.3333C38.7153 83.3333 36.2431 82.3368 34.25 80.3437C32.25 78.3437 31.25 75.8681 31.25 72.9167C31.25 69.9653 32.25 67.4896 34.25 65.4896C36.2431 63.4965 38.7153 62.5 41.6667 62.5H208.333C211.285 62.5 213.757 63.4965 215.75 65.4896C217.75 67.4896 218.75 69.9653 218.75 72.9167C218.75 75.8681 217.75 78.3437 215.75 80.3437C213.757 82.3368 211.285 83.3333 208.333 83.3333H41.6667Z" fill="#F7DE2E"/>
</svg>
